<svg width="180" height="45" viewBox="0 0 180 45" fill="none" xmlns="http://www.w3.org/2000/svg">
<g clip-path="url(#clip0_3515_130)">
<path d="M36.7183 30.402H35.6007C34.9446 30.402 34.4112 30.0465 33.9922 29.3312C33.5731 28.6159 33.3657 27.7101 33.3657 26.6097V2.23891C33.3657 1.58288 33.1582 1.04958 32.7392 0.630561C32.3201 0.215776 31.7867 0.00415039 31.1306 0.00415039C30.4745 0.00415039 29.9411 0.211543 29.522 0.630561C29.1029 1.04958 28.8955 1.58288 28.8955 2.23891V26.6097C28.8955 28.218 29.1791 29.6402 29.7421 30.8718C30.3051 32.1077 31.0967 33.0812 32.1084 33.7965C33.1201 34.5118 34.28 34.8673 35.5923 34.8673H35.6812C36.5744 34.8673 37.3024 34.6599 37.8697 34.2409C38.4327 33.8261 38.7163 33.2886 38.7163 32.6325C38.7163 31.9765 38.53 31.4432 38.1575 31.0242C37.785 30.6094 37.3024 30.3978 36.7056 30.3978H36.7183V30.402Z" fill="#0C2972"/>
<path d="M62.0319 10.4035C61.3757 10.4035 60.8339 10.6109 60.4021 11.0299C59.9704 11.4489 59.7545 11.9991 59.7545 12.6806V25.268C59.7545 26.3389 59.4582 27.3081 58.8613 28.1715C58.2644 29.035 57.4686 29.7206 56.4738 30.2243C55.4748 30.7322 54.3361 30.9819 53.0577 30.9819C51.7793 30.9819 50.5136 30.7237 49.4426 30.1989C48.3717 29.6783 47.5208 28.8741 46.8985 27.7864C46.272 26.6986 45.963 25.3231 45.963 23.6555V12.6763C45.963 12.0203 45.7471 11.4785 45.3154 11.0468C44.8836 10.6151 44.3417 10.3993 43.6856 10.3993C43.0295 10.3993 42.4876 10.6151 42.0559 11.0468C41.6241 11.4785 41.4082 12.0203 41.4082 12.6763V23.6555C41.4082 26.1272 41.8781 28.2096 42.8136 29.9069C43.7491 31.6041 45.0317 32.8908 46.653 33.7669C48.2743 34.643 50.1115 35.0832 52.1688 35.0832C54.226 35.0832 55.9404 34.6515 57.5025 33.7881C58.3491 33.3183 59.1026 32.7596 59.7587 32.1035V32.5818C59.7587 33.2379 59.9746 33.7796 60.4064 34.2113C60.8381 34.643 61.38 34.8589 62.0361 34.8589C62.6922 34.8589 63.2722 34.643 63.687 34.2113C64.1019 33.7796 64.3135 33.2379 64.3135 32.5818V12.6721C64.3135 11.9864 64.1061 11.4362 63.687 11.0214C63.2679 10.6066 62.7176 10.395 62.0361 10.395V10.4035H62.0319Z" fill="#0C2972"/>
<path d="M86.254 11.8087C84.5862 10.7802 82.5924 10.2681 80.2727 10.2681C77.9529 10.2681 75.8364 10.7971 74.0204 11.851C72.2044 12.9091 70.7821 14.3651 69.7576 16.2274C68.729 18.0897 68.2168 20.2399 68.2168 22.6778C68.2168 25.1157 68.7586 27.2235 69.8465 29.0816C70.9345 30.9439 72.4372 32.3998 74.3548 33.458C76.2766 34.5161 78.4694 35.0409 80.9415 35.0409C82.3088 35.0409 83.7481 34.787 85.2508 34.2833C86.7536 33.7796 88.0108 33.1236 89.0225 32.3194C89.5262 31.9343 89.7675 31.4729 89.7379 30.9354C89.7083 30.3979 89.4416 29.9069 88.9336 29.4625C88.5484 29.1366 88.0912 28.98 87.5705 28.9927C87.0499 29.0096 86.5673 29.1789 86.1186 29.5048C85.5217 29.9492 84.7428 30.3471 83.7734 30.6857C82.8041 31.0285 81.8601 31.1978 80.9373 31.1978C79.2398 31.1978 77.737 30.8253 76.429 30.0804C75.121 29.3355 74.0923 28.3239 73.3473 27.0457C72.8478 26.1908 72.5176 25.2511 72.3525 24.2353H89.3273C89.9242 24.2353 90.4152 24.0491 90.8004 23.6766C91.1856 23.3042 91.3803 22.8344 91.3803 22.2715C91.3803 19.9224 90.9401 17.8443 90.0638 16.0454C89.1876 14.2466 87.9134 12.833 86.2456 11.8045H86.254V11.8087ZM72.4076 20.6716C72.56 19.8208 72.8139 19.0251 73.1738 18.2844C73.8003 16.9893 74.7146 15.9693 75.921 15.2286C77.1275 14.4836 78.5794 14.1112 80.2727 14.1112C81.7585 14.1112 83.0242 14.454 84.0655 15.1397C85.1069 15.8253 85.9112 16.7523 86.4784 17.9289C86.8805 18.7669 87.1472 19.6812 87.2785 20.6758H72.4076V20.6716Z" fill="#0C2972"/>
<path d="M110.589 22.1867C109.294 21.5011 107.533 20.9381 105.298 20.4895C103.69 20.1636 102.47 19.8292 101.636 19.4864C100.803 19.1435 100.244 18.7584 99.9601 18.3267C99.6765 17.895 99.5368 17.4125 99.5368 16.8749C99.5368 16.0115 99.9898 15.3555 100.9 14.911C101.806 14.4666 102.915 14.2423 104.227 14.2423C105.357 14.2423 106.356 14.3777 107.22 14.6444C108.083 14.911 108.888 15.402 109.633 16.1173C110.077 16.5363 110.628 16.803 111.284 16.9215C111.94 17.04 112.503 16.9384 112.981 16.6083C113.455 16.2527 113.709 15.8126 113.739 15.292C113.769 14.7714 113.574 14.2719 113.159 13.7979C112.266 12.6974 111.059 11.834 109.544 11.2076C108.024 10.5812 106.284 10.2722 104.32 10.2722C102.801 10.2722 101.344 10.5177 99.9432 11.0087C98.5421 11.4996 97.3991 12.2446 96.5059 13.2392C95.6127 14.2381 95.1683 15.4951 95.1683 17.0104C95.1683 18.7372 95.8456 20.1932 97.2002 21.3868C98.5548 22.5761 100.735 23.4692 103.74 24.066C106.06 24.485 107.66 25.0183 108.541 25.6743C109.417 26.3303 109.84 27.1049 109.815 27.9937C109.785 28.8868 109.315 29.6148 108.409 30.1819C107.499 30.7491 106.183 31.0284 104.46 31.0284C103.093 31.0284 101.848 30.7829 100.731 30.292C99.613 29.801 98.8045 29.2719 98.2965 28.709C97.8775 28.2646 97.3822 28.0022 96.8022 27.926C96.2223 27.854 95.6339 28.053 95.037 28.527C94.5291 28.9122 94.2412 29.4116 94.165 30.0211C94.0888 30.6306 94.2751 31.1766 94.7238 31.6506C95.7059 32.6325 97.0816 33.4452 98.8553 34.0843C100.625 34.7234 102.555 35.0451 104.638 35.0451C106.72 35.0451 108.515 34.7192 109.929 34.0631C111.343 33.4071 112.414 32.531 113.142 31.4305C113.87 30.3301 114.234 29.0942 114.234 27.7271C114.234 26.5377 113.951 25.4881 113.388 24.5781C112.82 23.6723 111.893 22.8766 110.598 22.191H110.589V22.1867Z" fill="#0C2972"/>
<path d="M121.054 0.583984C120.249 0.583984 119.559 0.876027 118.979 1.45588C118.4 2.03573 118.107 2.72986 118.107 3.52981C118.107 4.32975 118.4 5.02388 118.979 5.60374C119.559 6.18359 120.254 6.47563 121.054 6.47563C121.854 6.47563 122.548 6.18359 123.128 5.60374C123.708 5.02388 124 4.32975 124 3.52981C124 2.72986 123.708 2.03573 123.128 1.45588C122.548 0.876027 121.854 0.583984 121.054 0.583984Z" fill="#0C2972"/>
<path d="M121.054 10.45C120.398 10.45 119.856 10.6573 119.424 11.0764C118.992 11.4954 118.776 12.0456 118.776 12.727V32.5902C118.776 33.2462 118.992 33.788 119.424 34.2197C119.856 34.6514 120.398 34.8673 121.054 34.8673C121.71 34.8673 122.29 34.6514 122.705 34.2197C123.12 33.788 123.331 33.2462 123.331 32.5902V12.727C123.331 12.0414 123.124 11.4911 122.705 11.0764C122.286 10.6616 121.735 10.45 121.054 10.45Z" fill="#0C2972"/>
<path d="M146.474 11.8552C144.628 10.8013 142.516 10.2722 140.133 10.2722C137.75 10.2722 135.595 10.8013 133.749 11.8552C131.904 12.9133 130.452 14.3693 129.398 16.2316C128.339 18.0939 127.814 20.244 127.814 22.6819C127.814 25.1198 128.305 27.2276 129.288 29.0857C130.27 30.948 131.616 32.404 133.326 33.4621C135.036 34.5202 137.009 35.0451 139.24 35.0451C141.293 35.0451 143.109 34.516 144.688 33.4621C146.055 32.5479 147.172 31.3289 148.036 29.8052V32.0104C148.036 33.9446 147.68 35.5826 146.965 36.9201C146.25 38.2575 145.289 39.2691 144.087 39.9548C142.88 40.6404 141.564 40.9833 140.137 40.9833C138.588 40.9833 137.203 40.6997 135.984 40.1368C134.765 39.5696 133.753 38.7824 132.949 37.7708C132.594 37.2925 132.124 36.9963 131.544 36.8777C130.964 36.7592 130.405 36.8777 129.868 37.2333C129.389 37.5592 129.101 37.9909 128.995 38.5284C128.89 39.0659 129.034 39.5823 129.419 40.0902C130.697 41.6986 132.259 42.9175 134.105 43.7513C135.95 44.5851 137.927 44.9999 140.044 44.9999C142.482 44.9999 144.637 44.4328 146.495 43.3027C148.353 42.1726 149.805 40.6447 150.847 38.7273C151.888 36.8058 152.409 34.6726 152.409 32.3236V22.6819C152.409 20.244 151.88 18.0897 150.826 16.2316C149.767 14.3735 148.32 12.9133 146.474 11.8552ZM147.033 27.0075C146.364 28.2561 145.433 29.2381 144.243 29.9534C143.054 30.6687 141.682 31.0242 140.137 31.0242C138.592 31.0242 137.22 30.6687 136.031 29.9534C134.841 29.2381 133.902 28.2561 133.22 27.0075C132.534 25.759 132.191 24.3157 132.191 22.6777C132.191 21.0397 132.534 19.5922 133.22 18.3267C133.906 17.0612 134.841 16.0707 136.031 15.3597C137.22 14.6444 138.592 14.2889 140.137 14.2889C141.682 14.2889 143.054 14.6444 144.243 15.3597C145.433 16.075 146.364 17.0654 147.033 18.3267C147.702 19.5922 148.036 21.0439 148.036 22.6777C148.036 24.3114 147.702 25.759 147.033 27.0075Z" fill="#0C2972"/>
<path d="M178.591 15.4022C177.655 13.7049 176.373 12.4183 174.751 11.5421C173.13 10.666 171.293 10.2258 169.236 10.2258C167.178 10.2258 165.502 10.6575 163.923 11.521C163.064 11.9908 162.306 12.5495 161.646 13.2013V12.7272C161.646 12.0416 161.438 11.4913 161.019 11.0766C160.6 10.6618 160.05 10.4502 159.368 10.4502C158.687 10.4502 158.17 10.6575 157.738 11.0766C157.307 11.4956 157.091 12.0458 157.091 12.7272V32.6369C157.091 33.293 157.307 33.8347 157.738 34.2665C158.17 34.6982 158.712 34.914 159.368 34.914C160.024 34.914 160.604 34.6982 161.019 34.2665C161.434 33.8347 161.646 33.293 161.646 32.6369V20.0495C161.646 18.949 161.942 17.9755 162.539 17.1248C163.136 16.2783 163.936 15.6011 164.952 15.0932C165.963 14.5895 167.094 14.3356 168.347 14.3356C169.714 14.3356 170.929 14.598 171.987 15.1186C173.041 15.6392 173.884 16.4349 174.51 17.5057C175.137 18.5766 175.446 19.9606 175.446 21.6578V32.6412C175.446 33.2972 175.661 33.839 176.093 34.2707C176.525 34.7024 177.067 34.9183 177.723 34.9183C178.379 34.9183 178.921 34.7024 179.353 34.2707C179.784 33.839 180 33.2972 180 32.6412V21.6578C180 19.186 179.53 17.1037 178.595 15.4064L178.591 15.4022Z" fill="#0C2972"/>
<path d="M12.2845 10.6405C9.31706 10.6405 6.59517 11.6986 4.47016 13.4551V2.23476C4.47016 1.57872 4.26273 1.04543 3.84366 0.626411C3.42458 0.211625 2.89121 0 2.23508 0C1.57895 0 1.04558 0.207393 0.626499 0.626411C0.207422 1.04543 0 1.57872 0 2.23476V23.0206C0.0296317 26.7833 1.76097 30.1481 4.46169 32.3787V23.0206V22.9148C4.46169 18.6061 7.9667 15.1016 12.276 15.1016C16.5853 15.1016 20.0903 18.6061 20.0903 22.9148C20.0903 27.2235 16.5853 30.728 12.276 30.728C10.3669 30.728 8.61013 30.0381 7.2513 28.8953V34.1182C8.78369 34.8081 10.4854 35.1933 12.276 35.1933C19.0447 35.1933 24.5562 29.6868 24.5562 22.9148C24.5562 16.1428 19.049 10.6363 12.276 10.6363H12.2845V10.6405Z" fill="#0C2972"/>
</g>
<defs>
<clipPath id="clip0_3515_130">
<rect width="180" height="45" fill="white"/>
</clipPath>
</defs>
</svg>
